<svg width="20" height="20" viewBox="0 0 20 20" fill="none" xmlns="http://www.w3.org/2000/svg">
<g clip-path="url(#clip0)">
<path d="M4.53919 19.9995V6.50555H0.251968V19.9995H4.53919ZM2.39613 4.66207C3.89116 4.66207 4.82175 3.62589 4.82175 2.33101C4.79389 1.00693 3.89122 -0.000488281 2.4245 -0.000488281C0.958016 -0.000488281 -0.000976562 1.00695 -0.000976562 2.33101C-0.000976562 3.62595 0.929378 4.66207 2.36814 4.66207H2.396H2.39613ZM6.91215 19.9995H11.1994V12.4638C11.1994 12.0605 11.2272 11.6577 11.3404 11.3694C11.6504 10.5636 12.3558 9.72901 13.5401 9.72901C15.0915 9.72901 15.7121 10.9665 15.7121 12.7805V19.9994H19.9991V12.2621C19.9991 8.11729 17.884 6.18875 15.0632 6.18875C12.7505 6.18875 11.735 7.54119 11.1709 8.46233H11.1995V6.50527H6.91225C6.96851 7.77147 6.91225 19.9993 6.91225 19.9993L6.91215 19.9995Z" fill="#012D77"/>
</g>
<defs>
<clipPath id="clip0">
<rect width="20" height="20" fill="white"/>
</clipPath>
</defs>
</svg>
